<svg width="609" height="211" viewBox="0 0 609 211" fill="none" xmlns="http://www.w3.org/2000/svg">
<g filter="url(#filter0_d_21_2)">
<path d="M66.216 121.272C66.8987 117.005 67.24 113.592 67.24 111.032C67.24 109.24 67.0693 107.832 66.728 106.808C66.472 105.784 66.1307 105.272 65.704 105.272C64.424 105.272 62.9307 106.339 61.224 108.472C59.6027 110.605 58.1947 113.165 57 116.152C55.8907 119.053 55.336 121.656 55.336 123.96C55.336 126.861 56.744 129.805 59.56 132.792C62.4613 135.693 66.6853 139.277 72.232 143.544C76.4133 146.616 79.528 149.176 81.576 151.224C83.624 153.187 84.6907 154.979 84.776 156.6C84.8613 160.184 82.984 163.725 79.144 167.224C75.304 170.637 70.4827 173.453 64.68 175.672C58.9627 177.891 53.6293 179 48.68 179C44.84 179 40.872 178.061 36.776 176.184C32.68 174.221 29.2667 171.96 26.536 169.4C23.8053 166.755 22.3973 164.451 22.312 162.488C22.1413 158.733 23.3787 155.704 26.024 153.4C28.6693 151.011 32.2107 149.816 36.648 149.816C38.8667 149.816 41.128 150.115 43.432 150.712C44.456 156.344 45.352 160.397 46.12 162.872C51.1547 161.592 56.616 159.373 62.504 156.216C43.4747 141.795 33.96 130.531 33.96 122.424C33.96 118.499 35.4107 113.805 38.312 108.344C41.2133 102.797 45.0533 98.0613 49.832 94.136C54.6107 90.1253 59.6453 88.12 64.936 88.12C68.8613 88.12 72.6587 89.4427 76.328 92.088C79.9973 94.7333 82.984 97.976 85.288 101.816C87.592 105.656 88.744 109.24 88.744 112.568C88.744 115.811 87.4213 118.413 84.776 120.376C82.216 122.253 79.016 123.192 75.176 123.192C72.1893 123.192 69.2027 122.552 66.216 121.272ZM145.85 179.768C139.791 176.269 134.415 171.917 129.722 166.712C125.029 161.507 121.231 155.576 118.33 148.92L117.818 154.296C116.965 162.573 116.111 168.76 115.258 172.856C114.49 176.952 113.381 179 111.93 179C109.967 179 107.621 178.275 104.89 176.824C102.245 175.373 99.898 173.667 97.85 171.704C95.8873 169.741 94.906 168.12 94.906 166.84C94.906 164.621 96.9967 153.315 101.178 132.92C101.69 130.531 102.501 126.477 103.61 120.76C104.805 114.957 105.615 110.776 106.042 108.216L101.306 108.984C98.6607 106.509 97.338 103.395 97.338 99.64C97.338 96.9947 98.0633 94.264 99.514 91.448C106.426 89.656 113.423 88.76 120.506 88.76C128.015 88.76 134.97 89.7413 141.37 91.704C147.855 93.6667 153.103 96.696 157.114 100.792C161.125 104.803 163.13 109.837 163.13 115.896C163.13 122.979 160.357 129.08 154.81 134.2C149.263 139.235 141.114 142.605 130.362 144.312C134.629 148.323 138.895 151.565 143.162 154.04C147.514 156.429 152.975 158.733 159.546 160.952C159.887 162.317 160.058 163.811 160.058 165.432C160.058 169.357 158.863 172.6 156.474 175.16C154.085 177.72 150.543 179.256 145.85 179.768ZM120.762 131.896C127.503 131.213 133.007 129.421 137.274 126.52C141.626 123.619 143.802 120.163 143.802 116.152C143.802 113.592 142.522 111.459 139.962 109.752C137.487 107.96 134.117 107.064 129.85 107.064C128.314 107.064 126.65 107.192 124.858 107.448C123.493 115.299 122.853 119.053 122.938 118.712C122.17 122.893 121.445 127.288 120.762 131.896ZM185.078 179C183.115 179 180.769 178.317 178.038 176.952C175.393 175.501 173.046 173.795 170.998 171.832C169.035 169.869 168.054 168.248 168.054 166.968C167.969 165.603 168.353 162.744 169.206 158.392C170.145 153.955 170.742 151.096 170.998 149.816C171.339 148.109 171.979 144.995 172.918 140.472C173.857 135.864 174.625 131.597 175.222 127.672L176.246 121.656C177.867 112.099 179.361 104.333 180.726 98.36C182.177 92.3867 183.627 89.4 185.078 89.4C186.699 89.4 188.875 90.1253 191.606 91.576C194.422 93.0267 196.854 94.7333 198.902 96.696C201.035 98.6587 202.102 100.365 202.102 101.816C202.102 102.584 201.291 105.997 199.67 112.056C196.683 122.808 194.465 132.195 193.014 140.216C192.161 145.251 191.265 151.864 190.326 160.056C189.473 167.053 188.705 171.96 188.022 174.776C187.425 177.592 186.443 179 185.078 179ZM281.59 155.064C283.979 156.173 285.814 157.752 287.094 159.8C288.459 161.848 289.142 164.067 289.142 166.456C289.142 169.955 287.819 173.027 285.174 175.672C279.883 176.781 274.209 177.635 268.15 178.232C262.091 178.829 256.63 179.128 251.766 179.128C249.718 179.128 248.225 179.085 247.286 179C245.75 178.915 243.745 178.104 241.27 176.568C238.881 175.032 236.747 173.283 234.87 171.32C232.993 169.272 232.054 167.523 232.054 166.072C232.054 164.536 232.993 159.715 234.87 151.608C236.662 144.013 238.326 136.035 239.862 127.672L240.886 122.04C242.593 112.397 244.171 104.547 245.622 98.488C247.158 92.4293 248.694 89.4 250.23 89.4C251.851 89.4 254.027 90.1253 256.758 91.576C259.489 93.0267 261.878 94.7333 263.926 96.696C266.059 98.6587 267.126 100.365 267.126 101.816C267.126 102.669 266.657 104.76 265.718 108.088C264.865 111.331 264.353 113.336 264.182 114.104C261.366 124.088 259.147 132.792 257.526 140.216C256.417 145.507 254.753 152.589 252.534 161.464C262.518 160.44 272.203 158.307 281.59 155.064ZM359.342 147.128C359.427 148.493 359.726 151.949 360.238 157.496C360.835 162.957 361.134 167.523 361.134 171.192C361.134 175.971 360.579 178.531 359.47 178.872C359.129 178.957 358.574 179 357.806 179C355.929 179 353.582 178.573 350.766 177.72C348.035 176.781 345.561 175.629 343.342 174.264C341.209 172.899 339.971 171.576 339.63 170.296C339.289 169.016 339.118 163.64 339.118 154.168C329.902 155.277 323.843 155.96 320.942 156.216C318.638 162.957 315.993 170.339 313.006 178.36C310.702 178.872 308.569 179.128 306.606 179.128C303.193 179.128 300.291 178.317 297.902 176.696C295.598 174.989 294.062 172.429 293.294 169.016L295.854 163.256C305.241 142.349 313.347 124.813 320.174 110.648C327.086 96.4827 331.566 89.4 333.614 89.4C335.235 89.4 337.582 89.9973 340.654 91.192C343.811 92.3867 346.627 93.8373 349.102 95.544C351.662 97.2507 353.113 98.7867 353.454 100.152C354.051 102.541 354.862 107.533 355.886 115.128C356.91 122.723 357.721 130.061 358.318 137.144L359.342 147.128ZM338.734 109.368C334.979 118.243 331.267 127.757 327.598 137.912C331.523 137.656 335.406 137.272 339.246 136.76C339.246 124.984 339.075 115.853 338.734 109.368ZM430.211 89.4C431.832 89.4 434.008 90.1253 436.739 91.576C439.555 93.0267 441.987 94.7333 444.035 96.696C446.168 98.6587 447.235 100.365 447.235 101.816C447.235 102.584 446.424 105.997 444.803 112.056C441.816 122.808 439.598 132.195 438.147 140.216C437.294 145.251 436.398 151.864 435.459 160.056C434.606 167.053 433.838 171.96 433.155 174.776C432.558 177.592 431.576 179 430.211 179C427.736 179 424.835 177.976 421.507 175.928C418.264 173.795 415.448 171.192 413.059 168.12C411.779 166.413 409.987 163.085 407.683 158.136C405.379 153.187 403.118 147.64 400.899 141.496C398.766 135.267 397.144 129.464 396.035 124.088L395.139 140.216C394.286 145.251 393.39 151.864 392.451 160.056C391.598 167.053 390.83 171.96 390.147 174.776C389.55 177.592 388.568 179 387.203 179C385.24 179 382.894 178.317 380.163 176.952C377.518 175.501 375.171 173.795 373.123 171.832C371.16 169.869 370.179 168.248 370.179 166.968C370.094 165.603 370.478 162.744 371.331 158.392C372.27 153.955 372.867 151.096 373.123 149.816C373.464 148.109 374.104 144.995 375.043 140.472C375.982 135.864 376.75 131.597 377.347 127.672L378.371 121.656C379.992 112.099 381.486 104.333 382.851 98.36C384.302 92.3867 385.752 89.4 387.203 89.4C388.654 89.4 390.616 90.04 393.091 91.32C395.651 92.5147 397.955 94.008 400.003 95.8C402.136 97.592 403.502 99.2987 404.099 100.92C408.11 111.672 413.016 126.179 418.819 144.44L420.355 127.672L421.379 121.656C423 112.099 424.494 104.333 425.859 98.36C427.31 92.3867 428.76 89.4 430.211 89.4ZM504.213 90.808C508.992 90.6373 512.746 91.6187 515.477 93.752C518.293 95.8 519.701 98.6587 519.701 102.328C519.701 103.779 519.53 105.144 519.189 106.424C507.925 119.395 495.296 129.72 481.301 137.4C486.08 142.008 491.498 146.275 497.557 150.2C503.701 154.125 509.589 157.197 515.221 159.416C515.477 160.781 515.605 162.147 515.605 163.512C515.605 167.523 514.41 170.979 512.021 173.88C509.717 176.696 506.389 178.403 502.037 179C495.808 175.331 490.474 171.107 486.037 166.328C481.6 161.464 477.077 155.405 472.469 148.152C471.701 159.075 470.933 166.968 470.165 171.832C469.397 176.611 468.16 179 466.453 179C464.49 179 462.144 178.317 459.413 176.952C456.768 175.501 454.421 173.795 452.373 171.832C450.41 169.869 449.429 168.248 449.429 166.968C449.344 165.603 449.728 162.744 450.581 158.392C451.52 153.955 452.117 151.096 452.373 149.816C452.714 148.109 453.354 144.995 454.293 140.472C455.232 135.864 456 131.597 456.597 127.672L457.621 121.656C459.242 112.099 460.736 104.333 462.101 98.36C463.552 92.3867 465.002 89.4 466.453 89.4C468.074 89.4 470.25 90.1253 472.981 91.576C475.797 93.0267 478.229 94.7333 480.277 96.696C482.41 98.6587 483.477 100.365 483.477 101.816C483.477 102.755 482.709 105.699 481.173 110.648C479.637 115.597 478.186 119.864 476.821 123.448C481.941 119.096 486.464 114.445 490.389 109.496C494.4 104.547 499.008 98.3173 504.213 90.808ZM586.092 147.128C586.177 148.493 586.476 151.949 586.988 157.496C587.585 162.957 587.884 167.523 587.884 171.192C587.884 175.971 587.329 178.531 586.22 178.872C585.879 178.957 585.324 179 584.556 179C582.679 179 580.332 178.573 577.516 177.72C574.785 176.781 572.311 175.629 570.092 174.264C567.959 172.899 566.721 171.576 566.38 170.296C566.039 169.016 565.868 163.64 565.868 154.168C556.652 155.277 550.593 155.96 547.692 156.216C545.388 162.957 542.743 170.339 539.756 178.36C537.452 178.872 535.319 179.128 533.356 179.128C529.943 179.128 527.041 178.317 524.652 176.696C522.348 174.989 520.812 172.429 520.044 169.016L522.604 163.256C531.991 142.349 540.097 124.813 546.924 110.648C553.836 96.4827 558.316 89.4 560.364 89.4C561.985 89.4 564.332 89.9973 567.404 91.192C570.561 92.3867 573.377 93.8373 575.852 95.544C578.412 97.2507 579.863 98.7867 580.204 100.152C580.801 102.541 581.612 107.533 582.636 115.128C583.66 122.723 584.471 130.061 585.068 137.144L586.092 147.128ZM565.484 109.368C561.729 118.243 558.017 127.757 554.348 137.912C558.273 137.656 562.156 137.272 565.996 136.76C565.996 124.984 565.825 115.853 565.484 109.368Z" fill="white"/>
</g>
<line x1="1.5" y1="211" x2="1.50001" y2="34" stroke="white" stroke-width="3"/>
<line x1="3" y1="209.5" x2="233" y2="209.5" stroke="white" stroke-width="3"/>
<line x1="375" y1="209.5" x2="605" y2="209.5" stroke="white" stroke-width="3"/>
<line x1="-1.31134e-07" y1="32.5" x2="176" y2="32.5" stroke="white" stroke-width="3"/>
<line x1="607.5" y1="211" x2="607.5" y2="34" stroke="white" stroke-width="3"/>
<line x1="433" y1="32.5" x2="609" y2="32.5" stroke="white" stroke-width="3"/>
<g filter="url(#filter1_d_21_2)">
<path d="M215.48 44C214.68 44 213.773 43.8267 212.76 43.48C211.773 43.1067 210.893 42.68 210.12 42.2C209.373 41.6933 208.947 41.2533 208.84 40.88C208.76 40.6133 208.667 39.88 208.56 38.68C208.48 37.4533 208.427 36.6267 208.4 36.2L208.24 33.88C206.773 36.76 205.387 39.1733 204.08 41.12C202.8 43.04 201.787 44 201.04 44C200.427 44 199.693 43.7867 198.84 43.36C198.013 42.9067 197.28 42.3733 196.64 41.76C196.027 41.1467 195.72 40.64 195.72 40.24C195.72 39.76 196.027 38.0133 196.64 35C197.307 31.5867 197.747 29.24 197.96 27.96L198.28 26.08C198.787 23.0933 199.253 20.6667 199.68 18.8C200.133 16.9333 200.587 16 201.04 16C201.547 16 202.227 16.2267 203.08 16.68C203.96 17.1333 204.72 17.6667 205.36 18.28C206.027 18.8933 206.36 19.4267 206.36 19.88C206.36 20.4667 206.187 21.3733 205.84 22.6C205.493 23.8 204.973 25.48 204.28 27.64C203.187 30.8933 202.4 33.4667 201.92 35.36L202.56 35.6L204.16 33.16C205.413 31.24 206.387 29.84 207.08 28.96C207.8 28.08 208.453 27.64 209.04 27.64C211.493 27.64 213.107 31.08 213.88 37.96C215.293 36.4133 216.307 34.3867 216.92 31.88C217.533 29.3733 217.84 26.7067 217.84 23.88C216.88 23.4 215.973 23.0667 215.12 22.88C214.267 22.6667 213.333 22.5733 212.32 22.6C211.68 21.5067 211.36 20.4667 211.36 19.48C211.36 18.6533 211.613 17.9333 212.12 17.32C212.627 16.7067 213.4 16.2667 214.44 16C217.267 16.4533 219.467 17.4667 221.04 19.04C222.613 20.5867 223.4 22.5067 223.4 24.8C223.4 26.6133 223.04 29.08 222.32 32.2C221.6 35.32 220.627 38.0667 219.4 40.44C218.2 42.8133 216.893 44 215.48 44ZM243.762 16C244.269 16.2933 244.642 16.7067 244.882 17.24C245.149 17.7467 245.282 18.3067 245.282 18.92C245.282 19.4533 245.176 19.9867 244.962 20.52C244.749 21.0533 244.469 21.4933 244.122 21.84C240.682 21.8933 237.816 22.0267 235.522 22.24C235.069 23.8667 234.642 25.68 234.242 27.68C236.909 27.4667 239.162 27.1467 241.002 26.72C241.536 27.04 241.936 27.4667 242.202 28C242.496 28.5067 242.642 29.0667 242.642 29.68C242.642 30.24 242.522 30.7733 242.282 31.28C242.069 31.76 241.762 32.1467 241.362 32.44C240.856 32.4933 240.362 32.5333 239.882 32.56C239.402 32.5867 238.936 32.6133 238.482 32.64L233.322 33L232.602 36.6L232.202 38.52C233.829 38.36 235.296 38.1467 236.602 37.88C237.936 37.5867 239.336 37.1867 240.802 36.68C241.549 37.0267 242.122 37.52 242.522 38.16C242.949 38.7733 243.162 39.4533 243.162 40.2C243.162 41.2667 242.749 42.2133 241.922 43.04C240.269 43.36 238.416 43.6 236.362 43.76C234.309 43.92 232.402 44 230.642 44C230.162 44 229.536 43.76 228.762 43.28C227.989 42.8 227.296 42.24 226.682 41.6C226.096 40.96 225.802 40.4133 225.802 39.96C225.802 39.56 226.109 38.0133 226.722 35.32C227.176 33.3467 227.616 31.2933 228.042 29.16C228.336 27.6933 228.482 26.96 228.482 26.96C228.909 24.88 229.189 23.3733 229.322 22.44L227.642 22.56C227.136 22.2933 226.722 21.9067 226.402 21.4C226.109 20.8667 225.962 20.2933 225.962 19.68C225.962 18.6133 226.376 17.6667 227.202 16.84C230.856 16.7867 234.029 16.7067 236.722 16.6C239.442 16.4933 241.789 16.2933 243.762 16ZM261.552 36.52C262.298 36.8667 262.872 37.36 263.272 38C263.698 38.64 263.912 39.3333 263.912 40.08C263.912 41.1733 263.498 42.1333 262.672 42.96C261.018 43.3067 259.245 43.5733 257.352 43.76C255.458 43.9467 253.752 44.04 252.232 44.04C251.592 44.04 251.125 44.0267 250.832 44C250.352 43.9733 249.725 43.72 248.952 43.24C248.205 42.76 247.538 42.2133 246.952 41.6C246.365 40.96 246.072 40.4133 246.072 39.96C246.072 39.48 246.365 37.9733 246.952 35.44C247.512 33.0667 248.032 30.5733 248.512 27.96L248.832 26.2C249.365 23.1867 249.858 20.7333 250.312 18.84C250.792 16.9467 251.272 16 251.752 16C252.258 16 252.938 16.2267 253.792 16.68C254.645 17.1333 255.392 17.6667 256.032 18.28C256.698 18.8933 257.032 19.4267 257.032 19.88C257.032 20.1467 256.885 20.8 256.592 21.84C256.325 22.8533 256.165 23.48 256.112 23.72C255.232 26.84 254.538 29.56 254.032 31.88C253.685 33.5333 253.165 35.7467 252.472 38.52C255.592 38.2 258.618 37.5333 261.552 36.52ZM284.243 40.12C283.683 40.68 282.789 41.28 281.563 41.92C280.363 42.56 279.043 43.1067 277.603 43.56C276.189 43.9867 274.869 44.2 273.643 44.2C272.709 44.2 271.603 43.7733 270.323 42.92C269.043 42.04 267.936 41 267.003 39.8C266.096 38.6 265.643 37.5333 265.643 36.6C265.669 33.7467 266.149 30.68 267.083 27.4C268.043 24.12 269.469 21.3333 271.363 19.04C273.283 16.7467 275.589 15.6 278.283 15.6C279.696 15.6 281.003 16 282.203 16.8C283.429 17.6 284.389 18.5867 285.083 19.76C285.776 20.9333 286.123 22.04 286.123 23.08C286.149 24.1733 285.776 25.0133 285.003 25.6C284.229 26.16 283.256 26.44 282.083 26.44C281.229 26.44 280.376 26.28 279.523 25.96C279.549 25.48 279.563 24.8 279.563 23.92C279.563 22.9333 279.483 22.2 279.323 21.72C279.163 21.24 278.856 21 278.403 21C277.496 21 276.563 21.9333 275.603 23.8C274.669 25.6667 273.869 27.96 273.203 30.68C272.563 33.4 272.216 35.8933 272.163 38.16C273.923 37.84 275.536 37.32 277.003 36.6C278.496 35.8533 279.803 35 280.923 34.04C282.123 34.3333 283.043 34.88 283.683 35.68C284.349 36.4533 284.683 37.32 284.683 38.28C284.683 38.8667 284.536 39.48 284.243 40.12ZM297.998 15.6C299.944 15.6 301.784 16.0667 303.518 17C305.278 17.9333 306.678 19.1733 307.718 20.72C308.784 22.24 309.318 23.8267 309.318 25.48C309.318 28.0667 308.624 30.84 307.238 33.8C305.851 36.7333 304.091 39.2 301.958 41.2C299.851 43.2 297.771 44.2 295.718 44.2C294.651 44.2 293.451 43.76 292.118 42.88C290.811 41.9733 289.691 40.9067 288.758 39.68C287.824 38.4267 287.358 37.32 287.358 36.36C287.358 34.84 287.811 32.2267 288.718 28.52C289.624 24.7867 290.464 22.04 291.238 20.28C292.118 20.0133 292.944 19.88 293.718 19.88C294.251 19.88 294.678 19.9333 294.998 20.04C294.944 19.0533 295.184 18.1467 295.718 17.32C296.251 16.4933 297.011 15.92 297.998 15.6ZM293.878 38.72C296.438 37.7867 298.584 36 300.318 33.36C302.051 30.6933 303.278 27.7733 303.998 24.6C303.251 24.0667 302.278 23.6267 301.078 23.28C299.904 22.9333 298.638 22.7467 297.278 22.72C297.331 22.9867 297.384 23.3867 297.438 23.92C294.984 28.5067 293.798 33.44 293.878 38.72ZM315.649 44C315.036 44 314.303 43.7867 313.449 43.36C312.623 42.9067 311.889 42.3733 311.249 41.76C310.636 41.1467 310.329 40.64 310.329 40.24C310.303 39.8133 310.423 38.92 310.689 37.56C310.983 36.1733 311.169 35.28 311.249 34.88C311.356 34.3467 311.556 33.3733 311.849 31.96C312.143 30.52 312.383 29.1867 312.569 27.96L312.889 26.08C313.396 23.0933 313.863 20.6667 314.289 18.8C314.743 16.9333 315.196 16 315.649 16C316.103 16 316.716 16.1867 317.489 16.56C318.289 16.9333 319.036 17.4133 319.729 18C320.423 18.56 320.889 19.0933 321.129 19.6C321.556 20.56 322.116 22.6133 322.809 25.76C323.289 27.9467 323.649 29.4533 323.889 30.28C325.036 28.5467 326.503 25.8933 328.289 22.32C329.436 20.0533 330.303 18.44 330.889 17.48C331.503 16.4933 332.049 16 332.529 16C333.036 16 333.716 16.2267 334.569 16.68C335.449 17.1333 336.209 17.6667 336.849 18.28C337.516 18.8933 337.849 19.4267 337.849 19.88C337.849 20.2533 337.689 21.3067 337.369 23.04C337.049 24.7467 336.849 25.8133 336.769 26.24L335.729 31.88C335.463 33.4533 335.183 35.52 334.889 38.08C334.623 40.2667 334.383 41.8 334.169 42.68C333.983 43.56 333.676 44 333.249 44C332.636 44 331.903 43.7867 331.049 43.36C330.223 42.9067 329.489 42.3733 328.849 41.76C328.236 41.1467 327.929 40.64 327.929 40.24C327.903 39.8933 327.996 39.16 328.209 38.04C328.449 36.8933 328.716 35.6 329.009 34.16C329.249 33.0133 329.383 32.36 329.409 32.2L330.849 27.76L330.289 27.56L329.889 28.36C328.849 30.4933 328.009 32.16 327.369 33.36C326.756 34.5333 326.249 35.3733 325.849 35.88C325.583 36.2 325.103 36.4667 324.409 36.68C323.716 36.8667 323.036 36.96 322.369 36.96C321.676 36.96 321.209 36.84 320.969 36.6C320.729 36.3867 320.516 35.9467 320.329 35.28C320.169 34.5867 319.943 33.52 319.649 32.08C319.596 31.7867 319.449 31.08 319.209 29.96C318.969 28.8133 318.703 27.7733 318.409 26.84L318.129 31.88C317.863 33.4533 317.583 35.52 317.289 38.08C317.023 40.2667 316.783 41.8 316.569 42.68C316.383 43.56 316.076 44 315.649 44ZM358.489 16C358.995 16.2933 359.369 16.7067 359.609 17.24C359.875 17.7467 360.009 18.3067 360.009 18.92C360.009 19.4533 359.902 19.9867 359.689 20.52C359.475 21.0533 359.195 21.4933 358.849 21.84C355.409 21.8933 352.542 22.0267 350.249 22.24C349.795 23.8667 349.369 25.68 348.969 27.68C351.635 27.4667 353.889 27.1467 355.729 26.72C356.262 27.04 356.662 27.4667 356.929 28C357.222 28.5067 357.369 29.0667 357.369 29.68C357.369 30.24 357.249 30.7733 357.009 31.28C356.795 31.76 356.489 32.1467 356.089 32.44C355.582 32.4933 355.089 32.5333 354.609 32.56C354.129 32.5867 353.662 32.6133 353.209 32.64L348.049 33L347.329 36.6L346.929 38.52C348.555 38.36 350.022 38.1467 351.329 37.88C352.662 37.5867 354.062 37.1867 355.529 36.68C356.275 37.0267 356.849 37.52 357.249 38.16C357.675 38.7733 357.889 39.4533 357.889 40.2C357.889 41.2667 357.475 42.2133 356.649 43.04C354.995 43.36 353.142 43.6 351.089 43.76C349.035 43.92 347.129 44 345.369 44C344.889 44 344.262 43.76 343.489 43.28C342.715 42.8 342.022 42.24 341.409 41.6C340.822 40.96 340.529 40.4133 340.529 39.96C340.529 39.56 340.835 38.0133 341.449 35.32C341.902 33.3467 342.342 31.2933 342.769 29.16C343.062 27.6933 343.209 26.96 343.209 26.96C343.635 24.88 343.915 23.3733 344.049 22.44L342.369 22.56C341.862 22.2933 341.449 21.9067 341.129 21.4C340.835 20.8667 340.689 20.2933 340.689 19.68C340.689 18.6133 341.102 17.6667 341.929 16.84C345.582 16.7867 348.755 16.7067 351.449 16.6C354.169 16.4933 356.515 16.2933 358.489 16ZM393.897 16C394.403 16.2933 394.777 16.7067 395.017 17.24C395.283 17.7467 395.417 18.3067 395.417 18.92C395.417 19.4533 395.31 19.9867 395.097 20.52C394.883 21.0533 394.603 21.4933 394.257 21.84C393.857 21.8133 393.257 21.8 392.457 21.8C391.95 21.8 391.03 21.8267 389.697 21.88L387.577 21.92C387.71 21.1467 387.39 22.9467 386.617 27.32L385.817 31.88C385.55 33.4533 385.27 35.52 384.977 38.08C384.71 40.2667 384.47 41.8 384.257 42.68C384.07 43.56 383.763 44 383.337 44C382.723 44 381.99 43.7867 381.137 43.36C380.31 42.9067 379.577 42.3733 378.937 41.76C378.323 41.1467 378.017 40.64 378.017 40.24C377.99 39.6267 378.31 37.8133 378.977 34.8C379.483 32.2667 379.843 30.3867 380.057 29.16C380.057 29.2133 380.27 28.1067 380.697 25.84C381.07 23.8133 381.297 22.5733 381.377 22.12L375.137 22.88C374.63 22.6133 374.217 22.2267 373.897 21.72C373.603 21.1867 373.457 20.6133 373.457 20C373.457 18.9333 373.87 17.9867 374.697 17.16C376.217 16.9467 378.11 16.8133 380.377 16.76C382.67 16.68 384.03 16.6267 384.457 16.6C387.257 16.52 389.297 16.4533 390.577 16.4C391.883 16.32 392.99 16.1867 393.897 16ZM404.912 15.6C406.859 15.6 408.699 16.0667 410.432 17C412.192 17.9333 413.592 19.1733 414.632 20.72C415.699 22.24 416.232 23.8267 416.232 25.48C416.232 28.0667 415.539 30.84 414.152 33.8C412.765 36.7333 411.005 39.2 408.872 41.2C406.765 43.2 404.685 44.2 402.632 44.2C401.565 44.2 400.365 43.76 399.032 42.88C397.725 41.9733 396.605 40.9067 395.672 39.68C394.739 38.4267 394.272 37.32 394.272 36.36C394.272 34.84 394.725 32.2267 395.632 28.52C396.539 24.7867 397.379 22.04 398.152 20.28C399.032 20.0133 399.859 19.88 400.632 19.88C401.165 19.88 401.592 19.9333 401.912 20.04C401.859 19.0533 402.099 18.1467 402.632 17.32C403.165 16.4933 403.925 15.92 404.912 15.6ZM400.792 38.72C403.352 37.7867 405.499 36 407.232 33.36C408.965 30.6933 410.192 27.7733 410.912 24.6C410.165 24.0667 409.192 23.6267 407.992 23.28C406.819 22.9333 405.552 22.7467 404.192 22.72C404.245 22.9867 404.299 23.3867 404.352 23.92C401.899 28.5067 400.712 33.44 400.792 38.72Z" fill="white"/>
</g>
<defs>
<filter id="filter0_d_21_2" x="20.056" y="86.12" width="575.828" height="101.648" filterUnits="userSpaceOnUse" color-interpolation-filters="sRGB">
<feFlood flood-opacity="0" result="BackgroundImageFix"/>
<feColorMatrix in="SourceAlpha" type="matrix" values="0 0 0 0 0 0 0 0 0 0 0 0 0 0 0 0 0 0 127 0" result="hardAlpha"/>
<feOffset dx="3" dy="3"/>
<feGaussianBlur stdDeviation="2.5"/>
<feComposite in2="hardAlpha" operator="out"/>
<feColorMatrix type="matrix" values="0 0 0 0 0 0 0 0 0 0 0 0 0 0 0 0 0 0 0.5 0"/>
<feBlend mode="normal" in2="BackgroundImageFix" result="effect1_dropShadow_21_2"/>
<feBlend mode="normal" in="SourceGraphic" in2="effect1_dropShadow_21_2" result="shape"/>
</filter>
<filter id="filter1_d_21_2" x="192.72" y="13.6" width="230.512" height="38.6" filterUnits="userSpaceOnUse" color-interpolation-filters="sRGB">
<feFlood flood-opacity="0" result="BackgroundImageFix"/>
<feColorMatrix in="SourceAlpha" type="matrix" values="0 0 0 0 0 0 0 0 0 0 0 0 0 0 0 0 0 0 127 0" result="hardAlpha"/>
<feOffset dx="2" dy="3"/>
<feGaussianBlur stdDeviation="2.5"/>
<feComposite in2="hardAlpha" operator="out"/>
<feColorMatrix type="matrix" values="0 0 0 0 0 0 0 0 0 0 0 0 0 0 0 0 0 0 0.5 0"/>
<feBlend mode="normal" in2="BackgroundImageFix" result="effect1_dropShadow_21_2"/>
<feBlend mode="normal" in="SourceGraphic" in2="effect1_dropShadow_21_2" result="shape"/>
</filter>
</defs>
</svg>
