<svg width="282" height="27" viewBox="0 0 282 27" fill="none" xmlns="http://www.w3.org/2000/svg">
<g filter="url(#filter0_d_17_4)">
<path d="M6.63086 2.43945C6.42253 3.80013 6.26302 5.17708 6.15234 6.57031C6.04818 7.95703 5.99609 9.36003 5.99609 10.7793C5.99609 11.847 6.02539 12.9049 6.08398 13.9531C6.14909 14.9948 6.24674 16.0299 6.37695 17.0586C6.10352 17.0391 5.83659 17.0195 5.57617 17C5.31576 16.987 5.06185 16.9805 4.81445 16.9805C4.20898 16.9805 3.60677 17.013 3.00781 17.0781C2.40885 17.1497 1.77734 17.2572 1.11328 17.4004C1.32161 16.248 1.48763 15.0794 1.61133 13.8945C1.73503 12.7031 1.79688 11.4922 1.79688 10.2617C1.79688 9.20703 1.74805 8.15885 1.65039 7.11719C1.55273 6.07552 1.39974 5.03711 1.19141 4.00195C1.65365 3.94336 2.10286 3.86849 2.53906 3.77734C2.98177 3.6862 3.42448 3.57552 3.86719 3.44531C4.3099 3.3151 4.75911 3.16862 5.21484 3.00586C5.67057 2.83659 6.14258 2.64779 6.63086 2.43945ZM23.4766 10.3203C23.4961 10.4635 23.5059 10.6035 23.5059 10.7402C23.5124 10.877 23.5156 11.0104 23.5156 11.1406C23.5156 11.8242 23.4082 12.4655 23.1934 13.0645C22.985 13.6634 22.6953 14.2135 22.3242 14.7148C21.9531 15.2161 21.5137 15.6654 21.0059 16.0625C20.5046 16.4596 19.9577 16.7949 19.3652 17.0684C18.7728 17.3418 18.151 17.5501 17.5 17.6934C16.8555 17.8431 16.2077 17.918 15.5566 17.918C14.9447 17.918 14.3555 17.8919 13.7891 17.8398C13.2227 17.7878 12.6855 17.7617 12.1777 17.7617C11.7871 17.7617 11.4193 17.7878 11.0742 17.8398C10.7292 17.8984 10.4102 18.0124 10.1172 18.1816C9.8763 17.2897 9.61914 16.4824 9.3457 15.7598C9.07878 15.0306 8.83138 14.4089 8.60352 13.8945C8.33659 13.2956 8.06966 12.7585 7.80273 12.2832C8.57747 12.6868 9.35221 13.0059 10.127 13.2402C10.9082 13.4746 11.6504 13.6569 12.3535 13.7871C13.0566 13.9108 13.6979 13.9922 14.2773 14.0312C14.8568 14.0638 15.3385 14.0801 15.7227 14.0801C16.1523 14.0801 16.5853 14.054 17.0215 14.002C17.4577 13.9499 17.8971 13.8685 18.3398 13.7578C18.2292 13.6081 18.1152 13.4746 17.998 13.3574C17.8809 13.2402 17.7734 13.1458 17.6758 13.0742C17.5586 12.9896 17.4447 12.918 17.334 12.8594C17.1452 12.7682 16.888 12.6803 16.5625 12.5957C16.2435 12.5046 15.8854 12.4069 15.4883 12.3027C15.0977 12.1986 14.6777 12.0846 14.2285 11.9609C13.7858 11.8372 13.3431 11.694 12.9004 11.5312C12.4642 11.3685 12.0443 11.1829 11.6406 10.9746C11.2435 10.7663 10.8887 10.5286 10.5762 10.2617C10.3288 10.0469 10.1237 9.81576 9.96094 9.56836C9.79818 9.31445 9.66797 9.05729 9.57031 8.79688C9.47917 8.52995 9.41081 8.26628 9.36523 8.00586C9.32617 7.73893 9.30339 7.48503 9.29688 7.24414C9.06901 7.33529 8.86393 7.42318 8.68164 7.50781C8.49935 7.59245 8.3431 7.66406 8.21289 7.72266L7.82227 7.91797C8.05664 7.21484 8.38216 6.5931 8.79883 6.05273C9.22201 5.51237 9.69401 5.04362 10.2148 4.64648C10.7422 4.24935 11.3021 3.91406 11.8945 3.64062C12.4935 3.36719 13.0859 3.14258 13.6719 2.9668C15.0391 2.55664 16.5202 2.32227 18.1152 2.26367C18.61 2.26367 19.1374 2.24414 19.6973 2.20508C20.179 2.17253 20.7292 2.1237 21.3477 2.05859C21.9661 1.98698 22.6172 1.88607 23.3008 1.75586C23.0924 2.06836 22.9232 2.4069 22.793 2.77148C22.6693 3.13607 22.5716 3.50391 22.5 3.875C22.4284 4.24609 22.3796 4.61393 22.3535 4.97852C22.3275 5.33659 22.3145 5.66536 22.3145 5.96484C22.3145 6.16667 22.3177 6.34896 22.3242 6.51172C22.3307 6.67448 22.3405 6.81445 22.3535 6.93164C22.3665 7.06836 22.3828 7.19206 22.4023 7.30273C21.263 6.78841 20.153 6.43034 19.0723 6.22852C17.9915 6.02018 16.9466 5.91602 15.9375 5.91602C15.5924 5.91602 15.2637 5.92904 14.9512 5.95508C14.6387 5.97461 14.3262 6.00391 14.0137 6.04297C14.0853 6.35547 14.2122 6.61589 14.3945 6.82422C14.5833 7.03255 14.7721 7.20182 14.9609 7.33203C15.1823 7.48177 15.4199 7.59896 15.6738 7.68359C16.1686 7.83984 16.7057 8.0319 17.2852 8.25977C17.8646 8.48112 18.444 8.75781 19.0234 9.08984C19.6029 9.42188 20.1595 9.8125 20.6934 10.2617C21.2272 10.7109 21.696 11.2318 22.0996 11.8242C22.347 11.6159 22.5879 11.388 22.8223 11.1406C23.0566 10.8867 23.2747 10.6133 23.4766 10.3203ZM37.9492 17.0781C36.8424 16.9089 35.7389 16.7819 34.6387 16.6973C33.5449 16.6061 32.4349 16.5605 31.3086 16.5605C30.0521 16.5605 28.7923 16.6159 27.5293 16.7266C26.2728 16.8372 25.0065 17.0163 23.7305 17.2637C24.0495 17.0163 24.3685 16.7754 24.6875 16.541C25.013 16.3066 25.3483 16.0853 25.6934 15.877C25.8431 14.9915 25.9538 14.1191 26.0254 13.2598C26.097 12.4004 26.1328 11.5345 26.1328 10.6621C26.1328 9.36654 26.0579 8.08724 25.9082 6.82422C25.7585 5.55469 25.5534 4.29167 25.293 3.03516C25.4297 3.04818 25.5697 3.05794 25.7129 3.06445C25.8626 3.06445 26.0091 3.06445 26.1523 3.06445C26.9792 3.06445 27.7897 3.01237 28.584 2.9082C29.3783 2.79753 30.1725 2.64128 30.9668 2.43945C30.9668 4.32096 30.8724 6.19922 30.6836 8.07422C30.5013 9.94271 30.1953 11.8112 29.7656 13.6797C30.9831 13.1458 32.2331 12.6901 33.5156 12.3125C34.7982 11.9349 36.1296 11.6322 37.5098 11.4043C37.4316 12.0618 37.3926 12.7064 37.3926 13.3379C37.3926 13.9694 37.4349 14.5977 37.5195 15.2227C37.6042 15.8477 37.7474 16.4661 37.9492 17.0781ZM55.332 12.4004C55.0326 12.5697 54.7298 12.7292 54.4238 12.8789C54.1178 13.0286 53.8086 13.1686 53.4961 13.2988C53.8346 13.9824 54.1927 14.64 54.5703 15.2715C54.9479 15.8965 55.3483 16.5117 55.7715 17.1172C54.6842 17.1172 53.6491 17.2246 52.666 17.4395C51.6895 17.6608 50.7259 18.0091 49.7754 18.4844C49.8275 18.3151 49.8633 18.1296 49.8828 17.9277C49.9023 17.7324 49.9121 17.5241 49.9121 17.3027C49.9121 16.9121 49.873 16.4824 49.7949 16.0137C49.7233 15.5449 49.6159 15.0469 49.4727 14.5195C49.1276 14.5716 48.7826 14.6107 48.4375 14.6367C48.099 14.6628 47.7637 14.6758 47.4316 14.6758C46.8587 14.6758 46.3021 14.6302 45.7617 14.5391C45.2214 14.4479 44.6973 14.3079 44.1895 14.1191C44.0723 14.7246 43.9616 15.3366 43.8574 15.9551C43.7533 16.5736 43.6523 17.2083 43.5547 17.8594C43.2227 17.6771 42.8548 17.5143 42.4512 17.3711C42.0996 17.2474 41.6829 17.1335 41.2012 17.0293C40.7194 16.9316 40.1823 16.8828 39.5898 16.8828C39.1211 16.8828 38.6263 16.9251 38.1055 17.0098C37.5846 17.1009 37.0475 17.2507 36.4941 17.459C37.002 16.9056 37.474 16.349 37.9102 15.7891C38.3529 15.2227 38.7533 14.679 39.1113 14.1582C39.4694 13.6309 39.7884 13.1393 40.0684 12.6836C40.3483 12.2279 40.5827 11.834 40.7715 11.502C40.5827 11.2415 40.4036 10.9616 40.2344 10.6621C40.0651 10.3626 39.9121 10.0404 39.7754 9.69531C40.0358 9.83854 40.2962 9.97201 40.5566 10.0957C40.8236 10.2129 41.0872 10.3268 41.3477 10.4375V10.418C41.6992 9.69531 42.0671 8.98893 42.4512 8.29883C42.8353 7.60872 43.2487 6.94141 43.6914 6.29688C43.6003 6.07552 43.4863 5.82487 43.3496 5.54492C43.2194 5.26497 43.0762 4.97201 42.9199 4.66602C42.7637 4.36003 42.5977 4.05404 42.4219 3.74805C42.2526 3.44206 42.0833 3.15234 41.9141 2.87891C42.5586 3.0612 43.2161 3.21094 43.8867 3.32812C44.5638 3.4388 45.2604 3.51042 45.9766 3.54297C46.3542 3.17839 46.7448 2.8431 47.1484 2.53711C47.5521 2.23112 47.9785 1.95768 48.4277 1.7168C48.2715 2.00977 48.1185 2.30599 47.9688 2.60547C47.819 2.90495 47.6725 3.21094 47.5293 3.52344C47.9134 3.50391 48.2975 3.4681 48.6816 3.41602C49.0658 3.36393 49.4499 3.29883 49.834 3.2207C50.1139 4.33398 50.4199 5.42448 50.752 6.49219C51.084 7.5599 51.4518 8.60807 51.8555 9.63672C52.1875 9.44792 52.5098 9.24609 52.8223 9.03125C53.1348 8.8099 53.4505 8.57878 53.7695 8.33789C53.9714 9.11263 54.1992 9.83529 54.4531 10.5059C54.707 11.1764 55 11.8079 55.332 12.4004ZM48.2715 11.082C47.6921 9.6888 46.9987 8.25326 46.1914 6.77539C45.944 7.48503 45.7064 8.21419 45.4785 8.96289C45.2572 9.70508 45.0423 10.4831 44.834 11.2969C45.0033 11.3099 45.1725 11.3197 45.3418 11.3262C45.5111 11.3327 45.6803 11.3359 45.8496 11.3359C46.2598 11.3359 46.6634 11.3164 47.0605 11.2773C47.4642 11.2383 47.8678 11.1732 48.2715 11.082ZM74.2188 3.54297C73.2812 4.71484 72.5684 5.96484 72.0801 7.29297C71.5983 8.62109 71.3574 10.0501 71.3574 11.5801C71.3574 12.3678 71.4225 13.1784 71.5527 14.0117C71.6829 14.8385 71.8848 15.6947 72.1582 16.5801C71.6178 16.5996 71.0677 16.6517 70.5078 16.7363C70.026 16.8079 69.4954 16.9219 68.916 17.0781C68.3366 17.2344 67.7702 17.4557 67.2168 17.7422C67.028 17.1888 66.8197 16.6582 66.5918 16.1504C66.3639 15.6361 66.1296 15.151 65.8887 14.6953C65.6478 14.2396 65.4036 13.8132 65.1562 13.416C64.9154 13.0189 64.6842 12.6543 64.4629 12.3223C63.9355 11.5475 63.4017 10.8542 62.8613 10.2422C62.8548 10.2357 62.8451 10.2227 62.832 10.2031C62.819 10.1901 62.806 10.1771 62.793 10.1641C62.7799 10.1445 62.7669 10.1217 62.7539 10.0957C62.793 10.6621 62.8125 11.2155 62.8125 11.7559C62.8125 13.748 62.5553 15.7109 62.041 17.6445C60.9082 17.2409 59.7396 17.0391 58.5352 17.0391C58.151 17.0391 57.7604 17.0586 57.3633 17.0977C56.9727 17.1367 56.5788 17.1986 56.1816 17.2832C57.1126 16.1243 57.819 14.8809 58.3008 13.5527C58.7891 12.2246 59.0332 10.7793 59.0332 9.2168C59.0332 8.69596 59.0039 8.16211 58.9453 7.61523C58.8932 7.06836 58.8118 6.50846 58.7012 5.93555C58.278 5.58398 57.8223 5.22591 57.334 4.86133C56.8457 4.49674 56.3216 4.1224 55.7617 3.73828C56.3672 3.82292 56.9466 3.85872 57.5 3.8457C58.0599 3.83268 58.6133 3.77083 59.1602 3.66016C59.707 3.54297 60.2604 3.38021 60.8203 3.17188C61.3802 2.96354 61.9661 2.70638 62.5781 2.40039L67.793 11.7754C67.7018 11.196 67.6335 10.6263 67.5879 10.0664C67.5423 9.50651 67.5195 8.94987 67.5195 8.39648C67.5195 7.19206 67.6367 6.02995 67.8711 4.91016C68.112 3.79036 68.4928 2.71289 69.0137 1.67773C70.5697 2.77799 72.3047 3.39974 74.2188 3.54297ZM90.625 8.92383C90.7161 9.70508 90.6771 10.4668 90.5078 11.209C90.3451 11.9447 90.0749 12.6413 89.6973 13.2988C89.3262 13.9564 88.8607 14.5586 88.3008 15.1055C87.7474 15.6523 87.1289 16.1243 86.4453 16.5215C85.7682 16.9186 85.0391 17.2279 84.2578 17.4492C83.4831 17.6706 82.6855 17.7812 81.8652 17.7812C81.3249 17.7812 80.7682 17.7129 80.1953 17.5762C79.6289 17.446 79.0788 17.2018 78.5449 16.8438C77.959 16.9154 77.3535 17.026 76.7285 17.1758C76.11 17.3255 75.4688 17.5208 74.8047 17.7617C75.3906 16.0104 75.8496 14.2526 76.1816 12.4883C76.5202 10.7174 76.696 8.92708 76.709 7.11719C76.4811 7.22135 76.25 7.3418 76.0156 7.47852C75.7812 7.60872 75.5501 7.75521 75.3223 7.91797C75.3483 7.7487 75.3646 7.58594 75.3711 7.42969C75.3841 7.26693 75.3906 7.10417 75.3906 6.94141C75.3906 6.14714 75.2734 5.39844 75.0391 4.69531C74.8112 3.98568 74.4727 3.3151 74.0234 2.68359C74.2643 2.60547 74.5508 2.53385 74.8828 2.46875C75.2148 2.40365 75.5664 2.34505 75.9375 2.29297C76.3151 2.24089 76.6992 2.19531 77.0898 2.15625C77.487 2.11719 77.8711 2.08464 78.2422 2.05859C78.6133 2.03255 78.9616 2.01302 79.2871 2C79.6126 1.98698 79.8926 1.98047 80.127 1.98047C81.0905 1.98047 81.9987 2.06185 82.8516 2.22461C83.7044 2.38086 84.4889 2.60547 85.2051 2.89844C85.9212 3.1849 86.5592 3.5332 87.1191 3.94336C87.6855 4.34701 88.1641 4.79622 88.5547 5.29102C88.9453 5.7793 89.2448 6.30664 89.4531 6.87305C89.6615 7.43945 89.7656 8.02865 89.7656 8.64062C89.7656 8.73828 89.7656 8.83919 89.7656 8.94336C89.7656 9.04102 89.7591 9.13867 89.7461 9.23633C89.9089 9.18424 90.0618 9.13542 90.2051 9.08984C90.3483 9.03776 90.4883 8.98242 90.625 8.92383ZM86.1621 9.72461C86.0384 9.31445 85.8594 8.94987 85.625 8.63086C85.3971 8.31185 85.1335 8.0319 84.834 7.79102C84.541 7.55013 84.222 7.34831 83.877 7.18555C83.5384 7.02279 83.1934 6.88607 82.8418 6.77539C82.4967 6.66471 82.1549 6.58333 81.8164 6.53125C81.4779 6.47266 81.1621 6.43034 80.8691 6.4043C80.8301 7.99935 80.8105 9.58464 80.8105 11.1602C80.8105 12.6055 80.8301 14.0443 80.8691 15.4766C81.5072 15.2878 82.1029 15.0273 82.6562 14.6953C83.2161 14.3633 83.6914 13.9596 84.082 13.4844C84.4792 13.0026 84.7754 12.4492 84.9707 11.8242C85.166 11.1992 85.2246 10.5059 85.1465 9.74414C85.2962 9.74414 85.4557 9.74414 85.625 9.74414C85.7943 9.74414 85.9733 9.73763 86.1621 9.72461ZM113.223 17.0781C112.116 16.9089 111.012 16.7819 109.912 16.6973C108.818 16.6061 107.708 16.5605 106.582 16.5605C105.326 16.5605 104.066 16.6159 102.803 16.7266C101.546 16.8372 100.28 17.0163 99.0039 17.2637C99.3229 17.0163 99.6419 16.7754 99.9609 16.541C100.286 16.3066 100.622 16.0853 100.967 15.877C101.117 14.9915 101.227 14.1191 101.299 13.2598C101.37 12.4004 101.406 11.5345 101.406 10.6621C101.406 9.36654 101.331 8.08724 101.182 6.82422C101.032 5.55469 100.827 4.29167 100.566 3.03516C100.703 3.04818 100.843 3.05794 100.986 3.06445C101.136 3.06445 101.283 3.06445 101.426 3.06445C102.253 3.06445 103.063 3.01237 103.857 2.9082C104.652 2.79753 105.446 2.64128 106.24 2.43945C106.24 4.32096 106.146 6.19922 105.957 8.07422C105.775 9.94271 105.469 11.8112 105.039 13.6797C106.257 13.1458 107.507 12.6901 108.789 12.3125C110.072 11.9349 111.403 11.6322 112.783 11.4043C112.705 12.0618 112.666 12.7064 112.666 13.3379C112.666 13.9694 112.708 14.5977 112.793 15.2227C112.878 15.8477 113.021 16.4661 113.223 17.0781ZM130.605 12.4004C130.306 12.5697 130.003 12.7292 129.697 12.8789C129.391 13.0286 129.082 13.1686 128.77 13.2988C129.108 13.9824 129.466 14.64 129.844 15.2715C130.221 15.8965 130.622 16.5117 131.045 17.1172C129.958 17.1172 128.923 17.2246 127.939 17.4395C126.963 17.6608 125.999 18.0091 125.049 18.4844C125.101 18.3151 125.137 18.1296 125.156 17.9277C125.176 17.7324 125.186 17.5241 125.186 17.3027C125.186 16.9121 125.146 16.4824 125.068 16.0137C124.997 15.5449 124.889 15.0469 124.746 14.5195C124.401 14.5716 124.056 14.6107 123.711 14.6367C123.372 14.6628 123.037 14.6758 122.705 14.6758C122.132 14.6758 121.576 14.6302 121.035 14.5391C120.495 14.4479 119.971 14.3079 119.463 14.1191C119.346 14.7246 119.235 15.3366 119.131 15.9551C119.027 16.5736 118.926 17.2083 118.828 17.8594C118.496 17.6771 118.128 17.5143 117.725 17.3711C117.373 17.2474 116.956 17.1335 116.475 17.0293C115.993 16.9316 115.456 16.8828 114.863 16.8828C114.395 16.8828 113.9 16.9251 113.379 17.0098C112.858 17.1009 112.321 17.2507 111.768 17.459C112.275 16.9056 112.747 16.349 113.184 15.7891C113.626 15.2227 114.027 14.679 114.385 14.1582C114.743 13.6309 115.062 13.1393 115.342 12.6836C115.622 12.2279 115.856 11.834 116.045 11.502C115.856 11.2415 115.677 10.9616 115.508 10.6621C115.339 10.3626 115.186 10.0404 115.049 9.69531C115.309 9.83854 115.57 9.97201 115.83 10.0957C116.097 10.2129 116.361 10.3268 116.621 10.4375V10.418C116.973 9.69531 117.34 8.98893 117.725 8.29883C118.109 7.60872 118.522 6.94141 118.965 6.29688C118.874 6.07552 118.76 5.82487 118.623 5.54492C118.493 5.26497 118.35 4.97201 118.193 4.66602C118.037 4.36003 117.871 4.05404 117.695 3.74805C117.526 3.44206 117.357 3.15234 117.188 2.87891C117.832 3.0612 118.49 3.21094 119.16 3.32812C119.837 3.4388 120.534 3.51042 121.25 3.54297C121.628 3.17839 122.018 2.8431 122.422 2.53711C122.826 2.23112 123.252 1.95768 123.701 1.7168C123.545 2.00977 123.392 2.30599 123.242 2.60547C123.092 2.90495 122.946 3.21094 122.803 3.52344C123.187 3.50391 123.571 3.4681 123.955 3.41602C124.339 3.36393 124.723 3.29883 125.107 3.2207C125.387 4.33398 125.693 5.42448 126.025 6.49219C126.357 7.5599 126.725 8.60807 127.129 9.63672C127.461 9.44792 127.783 9.24609 128.096 9.03125C128.408 8.8099 128.724 8.57878 129.043 8.33789C129.245 9.11263 129.473 9.83529 129.727 10.5059C129.98 11.1764 130.273 11.8079 130.605 12.4004ZM123.545 11.082C122.965 9.6888 122.272 8.25326 121.465 6.77539C121.217 7.48503 120.98 8.21419 120.752 8.96289C120.531 9.70508 120.316 10.4831 120.107 11.2969C120.277 11.3099 120.446 11.3197 120.615 11.3262C120.785 11.3327 120.954 11.3359 121.123 11.3359C121.533 11.3359 121.937 11.3164 122.334 11.2773C122.738 11.2383 123.141 11.1732 123.545 11.082ZM149.492 3.54297C148.555 4.71484 147.842 5.96484 147.354 7.29297C146.872 8.62109 146.631 10.0501 146.631 11.5801C146.631 12.3678 146.696 13.1784 146.826 14.0117C146.956 14.8385 147.158 15.6947 147.432 16.5801C146.891 16.5996 146.341 16.6517 145.781 16.7363C145.299 16.8079 144.769 16.9219 144.189 17.0781C143.61 17.2344 143.044 17.4557 142.49 17.7422C142.301 17.1888 142.093 16.6582 141.865 16.1504C141.637 15.6361 141.403 15.151 141.162 14.6953C140.921 14.2396 140.677 13.8132 140.43 13.416C140.189 13.0189 139.958 12.6543 139.736 12.3223C139.209 11.5475 138.675 10.8542 138.135 10.2422C138.128 10.2357 138.118 10.2227 138.105 10.2031C138.092 10.1901 138.079 10.1771 138.066 10.1641C138.053 10.1445 138.04 10.1217 138.027 10.0957C138.066 10.6621 138.086 11.2155 138.086 11.7559C138.086 13.748 137.829 15.7109 137.314 17.6445C136.182 17.2409 135.013 17.0391 133.809 17.0391C133.424 17.0391 133.034 17.0586 132.637 17.0977C132.246 17.1367 131.852 17.1986 131.455 17.2832C132.386 16.1243 133.092 14.8809 133.574 13.5527C134.062 12.2246 134.307 10.7793 134.307 9.2168C134.307 8.69596 134.277 8.16211 134.219 7.61523C134.167 7.06836 134.085 6.50846 133.975 5.93555C133.551 5.58398 133.096 5.22591 132.607 4.86133C132.119 4.49674 131.595 4.1224 131.035 3.73828C131.641 3.82292 132.22 3.85872 132.773 3.8457C133.333 3.83268 133.887 3.77083 134.434 3.66016C134.98 3.54297 135.534 3.38021 136.094 3.17188C136.654 2.96354 137.24 2.70638 137.852 2.40039L143.066 11.7754C142.975 11.196 142.907 10.6263 142.861 10.0664C142.816 9.50651 142.793 8.94987 142.793 8.39648C142.793 7.19206 142.91 6.02995 143.145 4.91016C143.385 3.79036 143.766 2.71289 144.287 1.67773C145.843 2.77799 147.578 3.39974 149.492 3.54297ZM155.82 3.03516C155.658 4.13542 155.534 5.22917 155.449 6.31641C155.371 7.39714 155.322 8.48438 155.303 9.57812C156.494 8.58203 157.585 7.47526 158.574 6.25781C159.57 5.03385 160.492 3.70898 161.338 2.2832C161.963 3.00586 162.679 3.64388 163.486 4.19727C164.294 4.75065 165.186 5.23242 166.162 5.64258C165.186 6.47591 164.167 7.24414 163.105 7.94727C162.044 8.64388 160.957 9.24935 159.844 9.76367C160.553 10.9551 161.387 12.0749 162.344 13.123C163.307 14.1647 164.352 15.1706 165.479 16.1406C163.434 16.5833 161.595 17.2702 159.961 18.2012C159.447 16.8405 158.809 15.5807 158.047 14.4219C157.292 13.2565 156.377 12.1953 155.303 11.2383C155.303 12.2083 155.322 13.1686 155.361 14.1191C155.4 15.0697 155.465 16.0299 155.557 17C155.029 17.0326 154.518 17.0781 154.023 17.1367C153.529 17.2018 153.034 17.2832 152.539 17.3809C152.051 17.485 151.559 17.6055 151.064 17.7422C150.57 17.8789 150.062 18.0319 149.541 18.2012C150.596 14.7832 151.123 11.3164 151.123 7.80078C151.123 6.0625 150.996 4.30794 150.742 2.53711C151.354 2.73893 151.943 2.89193 152.51 2.99609C153.083 3.09375 153.672 3.14258 154.277 3.14258C154.525 3.14258 154.775 3.13607 155.029 3.12305C155.283 3.11003 155.547 3.08073 155.82 3.03516ZM183.262 12.4004C182.962 12.5697 182.66 12.7292 182.354 12.8789C182.048 13.0286 181.738 13.1686 181.426 13.2988C181.764 13.9824 182.122 14.64 182.5 15.2715C182.878 15.8965 183.278 16.5117 183.701 17.1172C182.614 17.1172 181.579 17.2246 180.596 17.4395C179.619 17.6608 178.656 18.0091 177.705 18.4844C177.757 18.3151 177.793 18.1296 177.812 17.9277C177.832 17.7324 177.842 17.5241 177.842 17.3027C177.842 16.9121 177.803 16.4824 177.725 16.0137C177.653 15.5449 177.546 15.0469 177.402 14.5195C177.057 14.5716 176.712 14.6107 176.367 14.6367C176.029 14.6628 175.693 14.6758 175.361 14.6758C174.788 14.6758 174.232 14.6302 173.691 14.5391C173.151 14.4479 172.627 14.3079 172.119 14.1191C172.002 14.7246 171.891 15.3366 171.787 15.9551C171.683 16.5736 171.582 17.2083 171.484 17.8594C171.152 17.6771 170.785 17.5143 170.381 17.3711C170.029 17.2474 169.613 17.1335 169.131 17.0293C168.649 16.9316 168.112 16.8828 167.52 16.8828C167.051 16.8828 166.556 16.9251 166.035 17.0098C165.514 17.1009 164.977 17.2507 164.424 17.459C164.932 16.9056 165.404 16.349 165.84 15.7891C166.283 15.2227 166.683 14.679 167.041 14.1582C167.399 13.6309 167.718 13.1393 167.998 12.6836C168.278 12.2279 168.512 11.834 168.701 11.502C168.512 11.2415 168.333 10.9616 168.164 10.6621C167.995 10.3626 167.842 10.0404 167.705 9.69531C167.965 9.83854 168.226 9.97201 168.486 10.0957C168.753 10.2129 169.017 10.3268 169.277 10.4375V10.418C169.629 9.69531 169.997 8.98893 170.381 8.29883C170.765 7.60872 171.178 6.94141 171.621 6.29688C171.53 6.07552 171.416 5.82487 171.279 5.54492C171.149 5.26497 171.006 4.97201 170.85 4.66602C170.693 4.36003 170.527 4.05404 170.352 3.74805C170.182 3.44206 170.013 3.15234 169.844 2.87891C170.488 3.0612 171.146 3.21094 171.816 3.32812C172.493 3.4388 173.19 3.51042 173.906 3.54297C174.284 3.17839 174.674 2.8431 175.078 2.53711C175.482 2.23112 175.908 1.95768 176.357 1.7168C176.201 2.00977 176.048 2.30599 175.898 2.60547C175.749 2.90495 175.602 3.21094 175.459 3.52344C175.843 3.50391 176.227 3.4681 176.611 3.41602C176.995 3.36393 177.38 3.29883 177.764 3.2207C178.044 4.33398 178.35 5.42448 178.682 6.49219C179.014 7.5599 179.382 8.60807 179.785 9.63672C180.117 9.44792 180.439 9.24609 180.752 9.03125C181.064 8.8099 181.38 8.57878 181.699 8.33789C181.901 9.11263 182.129 9.83529 182.383 10.5059C182.637 11.1764 182.93 11.8079 183.262 12.4004ZM176.201 11.082C175.622 9.6888 174.928 8.25326 174.121 6.77539C173.874 7.48503 173.636 8.21419 173.408 8.96289C173.187 9.70508 172.972 10.4831 172.764 11.2969C172.933 11.3099 173.102 11.3197 173.271 11.3262C173.441 11.3327 173.61 11.3359 173.779 11.3359C174.189 11.3359 174.593 11.3164 174.99 11.2773C175.394 11.2383 175.798 11.1732 176.201 11.082ZM202.217 16.9414C202.087 16.9414 201.956 16.9382 201.826 16.9316C201.696 16.9251 201.566 16.9219 201.436 16.9219C200.583 16.9219 199.753 16.9805 198.945 17.0977C198.138 17.2214 197.347 17.4167 196.572 17.6836C196.559 17.4948 196.553 17.2995 196.553 17.0977C196.553 16.9023 196.553 16.7103 196.553 16.5215C196.553 14.6595 196.676 12.8757 196.924 11.1699C197.178 9.46419 197.575 7.8138 198.115 6.21875C197.048 6.32943 195.99 6.51823 194.941 6.78516C193.9 7.04557 192.884 7.39062 191.895 7.82031C192.135 6.81771 192.256 5.81185 192.256 4.80273C192.256 4.34049 192.23 3.87826 192.178 3.41602C192.132 2.94727 192.057 2.48828 191.953 2.03906C193.164 2.3125 194.391 2.54036 195.635 2.72266C196.878 2.89844 198.145 3.01237 199.434 3.06445C199.616 2.69987 199.805 2.33854 200 1.98047C200.202 1.6224 200.413 1.26758 200.635 0.916016C200.576 1.63867 200.537 2.36133 200.518 3.08398H200.811C201.657 3.08398 202.497 3.05143 203.33 2.98633C204.163 2.92122 205.007 2.8138 205.859 2.66406C205.71 2.94401 205.579 3.24349 205.469 3.5625C205.365 3.88151 205.312 4.26888 205.312 4.72461C205.312 4.98503 205.332 5.27148 205.371 5.58398C205.417 5.88997 205.492 6.23503 205.596 6.61914C204.86 6.44987 204.079 6.31966 203.252 6.22852C202.425 6.13086 201.566 6.08203 200.674 6.08203H200.518C200.57 7.91146 200.726 9.72786 200.986 11.5312C201.253 13.3281 201.663 15.1315 202.217 16.9414ZM219.531 2.82031C219.271 3.04818 219.023 3.28581 218.789 3.5332C218.561 3.77409 218.343 4.03125 218.135 4.30469C218.818 4.44141 219.463 4.66927 220.068 4.98828C220.68 5.30729 221.214 5.71094 221.67 6.19922C222.126 6.6875 222.487 7.26042 222.754 7.91797C223.021 8.56901 223.154 9.29492 223.154 10.0957C223.154 10.9876 223.021 11.7982 222.754 12.5273C222.493 13.25 222.129 13.8945 221.66 14.4609C221.191 15.0208 220.638 15.5059 220 15.916C219.362 16.3262 218.669 16.668 217.92 16.9414C217.171 17.2083 216.383 17.4036 215.557 17.5273C214.736 17.6576 213.906 17.7227 213.066 17.7227C212.773 17.7227 212.467 17.7161 212.148 17.7031C211.829 17.6966 211.52 17.6803 211.221 17.6543C210.928 17.6348 210.651 17.6022 210.391 17.5566C210.137 17.5176 209.928 17.4655 209.766 17.4004C209.993 17.2116 210.202 17.0195 210.391 16.8242C210.579 16.6289 210.758 16.4271 210.928 16.2188C210.244 16.082 209.596 15.8672 208.984 15.5742C208.372 15.2812 207.835 14.9102 207.373 14.4609C206.917 14.0052 206.556 13.4648 206.289 12.8398C206.022 12.2148 205.889 11.4954 205.889 10.6816C205.889 9.73763 206.042 8.88477 206.348 8.12305C206.66 7.35482 207.083 6.67773 207.617 6.0918C208.158 5.49935 208.789 4.99154 209.512 4.56836C210.234 4.13867 211.012 3.78711 211.846 3.51367C212.679 3.23372 213.545 3.02865 214.443 2.89844C215.348 2.76823 216.243 2.70312 217.129 2.70312C217.513 2.70312 217.9 2.71289 218.291 2.73242C218.688 2.75195 219.102 2.78125 219.531 2.82031ZM218.77 9.25586C218.77 8.87826 218.724 8.53971 218.633 8.24023C218.542 7.93424 218.415 7.66081 218.252 7.41992C218.089 7.17904 217.894 6.9707 217.666 6.79492C217.445 6.61914 217.201 6.46615 216.934 6.33594C216.829 6.57031 216.735 6.80469 216.65 7.03906C216.572 7.27344 216.497 7.51432 216.426 7.76172C216.048 7.63151 215.693 7.54362 215.361 7.49805C215.036 7.44596 214.733 7.41992 214.453 7.41992C213.965 7.41992 213.47 7.50781 212.969 7.68359C212.467 7.85286 212.015 8.10026 211.611 8.42578C211.214 8.7513 210.889 9.14518 210.635 9.60742C210.381 10.0697 210.254 10.5872 210.254 11.1602C210.254 11.4531 210.296 11.7396 210.381 12.0195C210.472 12.293 210.596 12.5566 210.752 12.8105C210.915 13.0645 211.104 13.3086 211.318 13.543C211.54 13.7708 211.777 13.9889 212.031 14.1973C212.122 13.9238 212.191 13.6536 212.236 13.3867C212.288 13.1133 212.321 12.8236 212.334 12.5176C212.764 12.7389 213.174 12.8919 213.564 12.9766C213.962 13.0612 214.329 13.1035 214.668 13.1035C215.176 13.1035 215.674 13.0156 216.162 12.8398C216.657 12.6641 217.096 12.4102 217.48 12.0781C217.871 11.7461 218.184 11.3424 218.418 10.8672C218.652 10.3919 218.77 9.85482 218.77 9.25586ZM240.557 3.37695C240.557 5.6556 240.345 7.68359 239.922 9.46094C239.499 11.2318 238.867 12.7259 238.027 13.9434C237.194 15.1608 236.159 16.0885 234.922 16.7266C233.685 17.3646 232.256 17.6836 230.635 17.6836C230.231 17.6836 229.811 17.651 229.375 17.5859C228.939 17.5273 228.486 17.4395 228.018 17.3223C228.109 17.2637 228.206 17.1986 228.311 17.127C228.402 17.0618 228.506 16.9837 228.623 16.8926C228.74 16.8014 228.864 16.6973 228.994 16.5801C228.232 16.3197 227.559 15.8932 226.973 15.3008C226.393 14.7018 225.905 13.9727 225.508 13.1133C225.117 12.2539 224.821 11.2806 224.619 10.1934C224.417 9.09961 224.316 7.92773 224.316 6.67773C224.316 6.38477 224.32 6.11784 224.326 5.87695C224.339 5.62956 224.355 5.38542 224.375 5.14453C224.401 4.89714 224.43 4.64323 224.463 4.38281C224.495 4.11589 224.538 3.81641 224.59 3.48438C225.254 3.54948 225.934 3.57227 226.631 3.55273C226.93 3.54622 227.246 3.52995 227.578 3.50391C227.917 3.47786 228.262 3.43555 228.613 3.37695C228.971 3.31836 229.329 3.24349 229.688 3.15234C230.052 3.05469 230.407 2.9375 230.752 2.80078C230.479 3.47786 230.241 4.10286 230.039 4.67578C229.837 5.24219 229.668 5.7793 229.531 6.28711C229.401 6.78841 229.3 7.27669 229.229 7.75195C229.163 8.2207 229.131 8.69596 229.131 9.17773C229.131 10.1152 229.255 10.9844 229.502 11.7852C229.749 12.5859 230.127 13.2988 230.635 13.9238C230.667 13.8132 230.693 13.6992 230.713 13.582C230.732 13.4583 230.752 13.3314 230.771 13.2012C230.941 13.2533 231.11 13.2891 231.279 13.3086C231.449 13.3281 231.615 13.3379 231.777 13.3379C232.246 13.3379 232.666 13.25 233.037 13.0742C233.408 12.8984 233.73 12.6608 234.004 12.3613C234.284 12.0618 234.518 11.7201 234.707 11.3359C234.902 10.9453 235.059 10.5384 235.176 10.1152C235.299 9.69206 235.387 9.26562 235.439 8.83594C235.492 8.40625 235.518 7.99935 235.518 7.61523C235.518 7.28971 235.479 6.91862 235.4 6.50195C235.322 6.08529 235.218 5.64909 235.088 5.19336C234.958 4.73763 234.805 4.27539 234.629 3.80664C234.46 3.33138 234.281 2.87565 234.092 2.43945C234.352 2.52409 234.642 2.60221 234.961 2.67383C235.286 2.74544 235.625 2.80729 235.977 2.85938C236.335 2.90495 236.699 2.94401 237.07 2.97656C237.441 3.0026 237.809 3.01562 238.174 3.01562C238.643 3.01562 239.082 2.98958 239.492 2.9375C239.909 2.88542 240.264 2.79427 240.557 2.66406V3.37695ZM258.35 16.3555C257.314 16.4401 256.309 16.6289 255.332 16.9219C254.362 17.2148 253.408 17.6152 252.471 18.123C252.399 17.2962 252.262 16.4922 252.061 15.7109C251.859 14.9232 251.595 14.1517 251.27 13.3965C250.625 13.5853 249.961 13.6797 249.277 13.6797C248.939 13.6797 248.61 13.6602 248.291 13.6211C248.304 14.2526 248.32 14.8841 248.34 15.5156C248.359 16.1406 248.385 16.7689 248.418 17.4004C248.236 17.3809 248.05 17.3613 247.861 17.3418C247.673 17.3288 247.477 17.3223 247.275 17.3223C246.527 17.3223 245.736 17.4069 244.902 17.5762C244.076 17.752 243.206 17.9993 242.295 18.3184C242.66 17.2441 242.972 16.1667 243.232 15.0859C243.499 14.0052 243.714 12.9115 243.877 11.8047C243.363 11.4531 242.926 11.1016 242.568 10.75C242.217 10.3984 241.953 10.1087 241.777 9.88086C242.129 9.99154 242.493 10.0924 242.871 10.1836C243.255 10.2747 243.643 10.3594 244.033 10.4375C244.085 9.94922 244.124 9.46419 244.15 8.98242C244.176 8.50065 244.189 8.01237 244.189 7.51758V6.94141C243.792 7.07161 243.398 7.21159 243.008 7.36133C242.617 7.51107 242.24 7.67708 241.875 7.85938C241.973 7.49479 242.048 7.13997 242.1 6.79492C242.152 6.44987 242.178 6.11133 242.178 5.7793C242.178 5.21289 242.106 4.66927 241.963 4.14844C241.82 3.6276 241.618 3.1263 241.357 2.64453C242.874 2.41016 244.235 2.25065 245.439 2.16602C246.65 2.08138 247.728 2.03906 248.672 2.03906C249.115 2.03906 249.616 2.05208 250.176 2.07812C250.742 2.09766 251.322 2.14974 251.914 2.23438C252.513 2.3125 253.105 2.42969 253.691 2.58594C254.277 2.74219 254.814 2.96029 255.303 3.24023C255.791 3.51367 256.208 3.85547 256.553 4.26562C256.904 4.66927 257.139 5.16081 257.256 5.74023V5.7793C257.425 5.68164 257.588 5.58073 257.744 5.47656C257.907 5.36589 258.07 5.24544 258.232 5.11523C258.141 5.70768 257.995 6.29688 257.793 6.88281C257.591 7.46875 257.337 8.03516 257.031 8.58203C256.732 9.12891 256.383 9.64974 255.986 10.1445C255.596 10.6393 255.166 11.0918 254.697 11.502C255.693 13.2598 256.911 14.8776 258.35 16.3555ZM250.996 5.7793C250.651 5.7793 250.267 5.79557 249.844 5.82812C249.421 5.86068 248.939 5.91276 248.398 5.98438C248.366 6.76562 248.34 7.54362 248.32 8.31836C248.301 9.0931 248.291 9.86784 248.291 10.6426C248.799 10.5775 249.274 10.4668 249.717 10.3105C250.16 10.1543 250.55 9.93945 250.889 9.66602C251.234 9.39258 251.517 9.05729 251.738 8.66016C251.966 8.25651 252.113 7.77799 252.178 7.22461C252.458 7.17253 252.734 7.1237 253.008 7.07812C253.288 7.03255 253.571 6.98047 253.857 6.92188V6.90234C253.708 6.72005 253.551 6.56055 253.389 6.42383C253.226 6.2806 253.037 6.16341 252.822 6.07227C252.607 5.97461 252.354 5.90299 252.061 5.85742C251.768 5.80534 251.413 5.7793 250.996 5.7793ZM274.355 10.3203C274.375 10.4635 274.385 10.6035 274.385 10.7402C274.391 10.877 274.395 11.0104 274.395 11.1406C274.395 11.8242 274.287 12.4655 274.072 13.0645C273.864 13.6634 273.574 14.2135 273.203 14.7148C272.832 15.2161 272.393 15.6654 271.885 16.0625C271.383 16.4596 270.837 16.7949 270.244 17.0684C269.652 17.3418 269.03 17.5501 268.379 17.6934C267.734 17.8431 267.087 17.918 266.436 17.918C265.824 17.918 265.234 17.8919 264.668 17.8398C264.102 17.7878 263.564 17.7617 263.057 17.7617C262.666 17.7617 262.298 17.7878 261.953 17.8398C261.608 17.8984 261.289 18.0124 260.996 18.1816C260.755 17.2897 260.498 16.4824 260.225 15.7598C259.958 15.0306 259.71 14.4089 259.482 13.8945C259.215 13.2956 258.949 12.7585 258.682 12.2832C259.456 12.6868 260.231 13.0059 261.006 13.2402C261.787 13.4746 262.529 13.6569 263.232 13.7871C263.936 13.9108 264.577 13.9922 265.156 14.0312C265.736 14.0638 266.217 14.0801 266.602 14.0801C267.031 14.0801 267.464 14.054 267.9 14.002C268.337 13.9499 268.776 13.8685 269.219 13.7578C269.108 13.6081 268.994 13.4746 268.877 13.3574C268.76 13.2402 268.652 13.1458 268.555 13.0742C268.438 12.9896 268.324 12.918 268.213 12.8594C268.024 12.7682 267.767 12.6803 267.441 12.5957C267.122 12.5046 266.764 12.4069 266.367 12.3027C265.977 12.1986 265.557 12.0846 265.107 11.9609C264.665 11.8372 264.222 11.694 263.779 11.5312C263.343 11.3685 262.923 11.1829 262.52 10.9746C262.122 10.7663 261.768 10.5286 261.455 10.2617C261.208 10.0469 261.003 9.81576 260.84 9.56836C260.677 9.31445 260.547 9.05729 260.449 8.79688C260.358 8.52995 260.29 8.26628 260.244 8.00586C260.205 7.73893 260.182 7.48503 260.176 7.24414C259.948 7.33529 259.743 7.42318 259.561 7.50781C259.378 7.59245 259.222 7.66406 259.092 7.72266L258.701 7.91797C258.936 7.21484 259.261 6.5931 259.678 6.05273C260.101 5.51237 260.573 5.04362 261.094 4.64648C261.621 4.24935 262.181 3.91406 262.773 3.64062C263.372 3.36719 263.965 3.14258 264.551 2.9668C265.918 2.55664 267.399 2.32227 268.994 2.26367C269.489 2.26367 270.016 2.24414 270.576 2.20508C271.058 2.17253 271.608 2.1237 272.227 2.05859C272.845 1.98698 273.496 1.88607 274.18 1.75586C273.971 2.06836 273.802 2.4069 273.672 2.77148C273.548 3.13607 273.451 3.50391 273.379 3.875C273.307 4.24609 273.258 4.61393 273.232 4.97852C273.206 5.33659 273.193 5.66536 273.193 5.96484C273.193 6.16667 273.197 6.34896 273.203 6.51172C273.21 6.67448 273.219 6.81445 273.232 6.93164C273.245 7.06836 273.262 7.19206 273.281 7.30273C272.142 6.78841 271.032 6.43034 269.951 6.22852C268.87 6.02018 267.826 5.91602 266.816 5.91602C266.471 5.91602 266.143 5.92904 265.83 5.95508C265.518 5.97461 265.205 6.00391 264.893 6.04297C264.964 6.35547 265.091 6.61589 265.273 6.82422C265.462 7.03255 265.651 7.20182 265.84 7.33203C266.061 7.48177 266.299 7.59896 266.553 7.68359C267.048 7.83984 267.585 8.0319 268.164 8.25977C268.743 8.48112 269.323 8.75781 269.902 9.08984C270.482 9.42188 271.038 9.8125 271.572 10.2617C272.106 10.7109 272.575 11.2318 272.979 11.8242C273.226 11.6159 273.467 11.388 273.701 11.1406C273.936 10.8867 274.154 10.6133 274.355 10.3203Z" fill="white"/>
</g>
<defs>
<filter id="filter0_d_17_4" x="0.113281" y="0.916016" width="281.281" height="25.5684" filterUnits="userSpaceOnUse" color-interpolation-filters="sRGB">
<feFlood flood-opacity="0" result="BackgroundImageFix"/>
<feColorMatrix in="SourceAlpha" type="matrix" values="0 0 0 0 0 0 0 0 0 0 0 0 0 0 0 0 0 0 127 0" result="hardAlpha"/>
<feOffset dx="3" dy="4"/>
<feGaussianBlur stdDeviation="2"/>
<feComposite in2="hardAlpha" operator="out"/>
<feColorMatrix type="matrix" values="0 0 0 0 0 0 0 0 0 0 0 0 0 0 0 0 0 0 0.25 0"/>
<feBlend mode="normal" in2="BackgroundImageFix" result="effect1_dropShadow_17_4"/>
<feBlend mode="normal" in="SourceGraphic" in2="effect1_dropShadow_17_4" result="shape"/>
</filter>
</defs>
</svg>
